<?xml version="1.0" encoding="UTF-8" standalone="no"?>
<!DOCTYPE svg PUBLIC "-//W3C//DTD SVG 1.1//EN"
 "http://www.w3.org/Graphics/SVG/1.1/DTD/svg11.dtd">
<!-- Generated by graphviz version 2.40.1 (20161225.0304)
 -->
<!-- Title: test Pages: 1 -->
<svg width="628pt" height="186pt"
 viewBox="0.00 0.00 628.00 186.00" xmlns="http://www.w3.org/2000/svg" xmlns:xlink="http://www.w3.org/1999/xlink">
<g id="graph0" class="graph" transform="scale(1 1) rotate(0) translate(4 182)">
<title>test</title>
<polygon fill="#ffffff" stroke="transparent" points="-4,4 -4,-182 624,-182 624,4 -4,4"/>
<g id="clust1" class="cluster">
<title>cluster_marx</title>
<polygon fill="none" stroke="#000000" points="8,-8 8,-85 612,-85 612,-8 8,-8"/>
<text text-anchor="middle" x="310" y="-69.8" font-family="Times,serif" font-size="14.00" fill="#000000">马克思的路径</text>
</g>
<g id="clust2" class="cluster">
<title>cluster_sraffa</title>
<polygon fill="none" stroke="#000000" points="8,-93 8,-170 612,-170 612,-93 8,-93"/>
<text text-anchor="middle" x="310" y="-154.8" font-family="Times,serif" font-size="14.00" fill="#000000">斯拉法的路径</text>
</g>
<!-- a -->
<g id="node1" class="node">
<title>a</title>
<polygon fill="none" stroke="#000000" points="16,-17 16,-53 161,-53 161,-17 16,-17"/>
<text text-anchor="middle" x="88.5" y="-31.3" font-family="Times,serif" font-size="14.00" fill="#000000">生产条件、实际工资</text>
</g>
<!-- b -->
<g id="node2" class="node">
<title>b</title>
<polygon fill="none" stroke="#000000" points="197,-17 197,-53 313,-53 313,-17 197,-17"/>
<text text-anchor="middle" x="255" y="-31.3" font-family="Times,serif" font-size="14.00" fill="#000000">价值、剩余价值</text>
</g>
<!-- a&#45;&gt;b -->
<g id="edge1" class="edge">
<title>a&#45;&gt;b</title>
<path fill="none" stroke="#000000" d="M161.045,-35C169.5803,-35 178.2683,-35 186.7421,-35"/>
<polygon fill="#000000" stroke="#000000" points="186.9472,-38.5001 196.9472,-35 186.9471,-31.5001 186.9472,-38.5001"/>
</g>
<!-- c -->
<g id="node3" class="node">
<title>c</title>
<polygon fill="none" stroke="#000000" points="349,-17 349,-53 437,-53 437,-17 349,-17"/>
<text text-anchor="middle" x="393" y="-31.3" font-family="Times,serif" font-size="14.00" fill="#000000">转型计算法</text>
</g>
<!-- b&#45;&gt;c -->
<g id="edge2" class="edge">
<title>b&#45;&gt;c</title>
<path fill="none" stroke="#000000" d="M313.1245,-35C321.6081,-35 330.3168,-35 338.72,-35"/>
<polygon fill="#000000" stroke="#000000" points="338.7829,-38.5001 348.7828,-35 338.7828,-31.5001 338.7829,-38.5001"/>
</g>
<!-- d -->
<g id="node4" class="node">
<title>d</title>
<polygon fill="none" stroke="#000000" points="473,-17 473,-53 604,-53 604,-17 473,-17"/>
<text text-anchor="middle" x="538.5" y="-31.3" font-family="Times,serif" font-size="14.00" fill="#000000">生产价格、利润率</text>
</g>
<!-- c&#45;&gt;d -->
<g id="edge3" class="edge">
<title>c&#45;&gt;d</title>
<path fill="none" stroke="#000000" d="M437.0496,-35C445.1655,-35 453.8488,-35 462.5931,-35"/>
<polygon fill="#000000" stroke="#000000" points="462.8558,-38.5001 472.8558,-35 462.8558,-31.5001 462.8558,-38.5001"/>
</g>
<!-- e -->
<g id="node5" class="node">
<title>e</title>
<polygon fill="none" stroke="#000000" points="16,-102 16,-138 161,-138 161,-102 16,-102"/>
<text text-anchor="middle" x="88.5" y="-116.3" font-family="Times,serif" font-size="14.00" fill="#000000">生产条件、实际工资</text>
</g>
<!-- f -->
<g id="node6" class="node">
<title>f</title>
<polygon fill="none" stroke="#000000" points="473,-102 473,-138 604,-138 604,-102 473,-102"/>
<text text-anchor="middle" x="538.5" y="-116.3" font-family="Times,serif" font-size="14.00" fill="#000000">生产价格、利润率</text>
</g>
<!-- e&#45;&gt;f -->
<g id="edge4" class="edge">
<title>e&#45;&gt;f</title>
<path fill="none" stroke="#000000" d="M161.0502,-120C243.7406,-120 378.2958,-120 462.4265,-120"/>
<polygon fill="#000000" stroke="#000000" points="462.6829,-123.5001 472.6829,-120 462.6829,-116.5001 462.6829,-123.5001"/>
</g>
</g>
</svg>
